<svg xmlns="http://www.w3.org/2000/svg" width="172.608" height="89.538" viewBox="0 0 172.608 89.538">
  <g id="email_4_" data-name="email (4)" transform="translate(-0.19)">
    <path id="XMLID_1220_" d="M57.891,83.363H14.339A14.5,14.5,0,0,1,0,68.757V14.607A14.5,14.5,0,0,1,14.339,0h87.1a14.5,14.5,0,0,1,14.339,14.607v54.15a14.5,14.5,0,0,1-14.339,14.607H52.091" transform="translate(53.928 4.631)" fill="#ffd502"/>
    <path id="Shape" d="M17.287,89.538A17.535,17.535,0,0,1,0,71.747V17.829C0,7.976,7.75,0,17.287,0h85.839c9.538,0,17.288,8.011,17.288,17.829V71.71a17.566,17.566,0,0,1-17.288,17.827Z" transform="translate(52.384)" fill="#002e5f"/>
    <path id="Shape-2" data-name="Shape" d="M.816,54.48a3.342,3.342,0,0,0,2.446,1.1,3.166,3.166,0,0,0,2.158-.812L33.588,30.39l9.137,6.959a3.214,3.214,0,0,0,2.015.671,3.287,3.287,0,0,0,2.015-.671l9.425-7.171,27.879,24.55a3.166,3.166,0,0,0,2.158.812,3.305,3.305,0,0,0,2.446-1.06,3.183,3.183,0,0,0-.252-4.521L61.431,26.186,88.268,5.734a3.136,3.136,0,0,0,.576-4.486A3.272,3.272,0,0,0,84.275.682L44.74,30.814l-9.281-7.1L5.277.718a3.268,3.268,0,0,0-4.569.565,3.132,3.132,0,0,0,.576,4.486L28.372,26.433,1.14,49.994A3.086,3.086,0,0,0,.816,54.48Z" transform="translate(70.91 15.438)" fill="#fff"/>
    <path id="Shape-3" data-name="Shape" d="M29.148,6.175a3.2,3.2,0,0,0,3.271-3.088A3.2,3.2,0,0,0,29.148,0H3.271A3.2,3.2,0,0,0,0,3.088,3.2,3.2,0,0,0,3.271,6.175Z" transform="translate(12.168 47.412) rotate(-20)" fill="#a8a8a8"/>
    <path id="Shape-4" data-name="Shape" d="M3.215,6.175H41.554a3.165,3.165,0,0,0,3.215-3.088A3.165,3.165,0,0,0,41.554,0H3.215A3.165,3.165,0,0,0,0,3.088,3.188,3.188,0,0,0,3.215,6.175Z" transform="translate(0.19 34.086) rotate(-20)" fill="#a8a8a8"/>
    <path id="Shape-5" data-name="Shape" d="M24.7,3.088A3.282,3.282,0,0,0,21.274,0H3.426A3.282,3.282,0,0,0,0,3.088,3.282,3.282,0,0,0,3.426,6.175H21.274A3.282,3.282,0,0,0,24.7,3.088Z" transform="translate(22.742 61.529) rotate(-20)" fill="#a8a8a8"/>
  </g>
</svg>
