<svg xmlns="http://www.w3.org/2000/svg" width="46.204" height="38.467" viewBox="0 0 46.204 38.467">
  <path id="_163547680716366519055443" data-name="163547680716366519055443" d="M51.749,21.033v-.14a.878.878,0,0,0,0-.218.67.67,0,0,0,0-.131.874.874,0,0,0-.079-.253v-.079l-4.689-9.648a1.292,1.292,0,0,0-1.17-.733h-34.3a1.292,1.292,0,0,0-1.17.733l-4.706,9.6v.079a.873.873,0,0,0-.079.253.663.663,0,0,0,0,.131.873.873,0,0,0,0,.218v.14a1.232,1.232,0,0,0,.052.192c0,.052.044.1.061.14a.585.585,0,0,0,.052.1l.061.07a.262.262,0,0,0,0,.07L27.615,48.031l.052.061a.6.6,0,0,0,.114.1.088.088,0,0,0,.044,0h0l.087.052h.044l.157.052h.131a1.041,1.041,0,0,0,.175,0h.227a1.041,1.041,0,0,0,.175,0h.131l.157-.052.087-.052a.088.088,0,0,0,.044,0,.6.6,0,0,0,.114-.1l.052-.061L51.234,21.565V21.5l.061-.07a.582.582,0,0,0,.052-.1c0-.044.044-.087.061-.14a1.231,1.231,0,0,0,.341-.148Zm-3.37-1.572H43.035L40.1,12.476h4.855Zm-31.277,0,2.925-6.985H37.264l2.925,6.985Zm22.763,2.619L28.646,44.329,17.417,22.081Zm-27.531-9.6H17.19l-2.934,6.985H8.912Zm2.165,9.6,7.71,15.3L9.593,22.081ZM35.09,37.361l7.71-15.28h4.9Z" transform="translate(-5.552 -9.83)" fill="#002e5f"/>
</svg>
