<svg xmlns="http://www.w3.org/2000/svg" width="47.381" height="39.757" viewBox="0 0 47.381 39.757">
  <g id="Layer_2" data-name="Layer 2" transform="translate(0.293 0.009)">
    <g id="Layer_2-2" data-name="Layer 2">
      <path id="Path_7099" data-name="Path 7099" d="M45.84,1.13,17.26,26.45l12.08,3.14a1,1,0,0,0,1.17-.51L46,1.26a.1.1,0,0,0-.16-.13Z" fill="none" stroke="#002e5f" stroke-linecap="round" stroke-linejoin="round" stroke-width="2"/>
      <path id="Path_7100" data-name="Path 7100" d="M9.62,23.15l-7.83-2a1,1,0,1,1-.15-2L45.62,1a.06.06,0,0,1,.05.11l-36.05,22,4.86,14.57a1.012,1.012,0,0,0,2-.31l.79-11" fill="none" stroke="#002e5f" stroke-linecap="round" stroke-linejoin="round" stroke-width="2"/>
      <line id="Line_293" data-name="Line 293" y1="10.24" x2="7.59" transform="translate(16.06 28.11)" fill="none" stroke="#002e5f" stroke-linecap="round" stroke-linejoin="round" stroke-width="2"/>
    </g>
  </g>
</svg>
